# xmcd CD database file
#
# Track frame offsets:
#	150
#	16574
#	30453
#	49184
#	65867
#	82145
#	93903
#	108517
#	123428
#	142817
#	160592
#	185182
#	199003
#	215758
#	226987
#
# Disc length: 3341 seconds
#
# Revision: 0
# Processed by: cddbd v1.5.2PL0 Copyright (c) Steve Scherf et al.
# Submitted via: CDex 1.60beta1
#
DISCID=cc0d0b0f
DTITLE=Wensday and Mike - At Home
DYEAR=2006
DGENRE=Jazz
TTITLE0=Coulda' Woulda' Shoulda'
TTITLE1=Embraceable You
TTITLE2=Autumn Leaves
TTITLE3=Bei Mir Bist Du Schon
TTITLE4=The Man I Love
TTITLE5=Goody Goody
TTITLE6=Blue Moon
TTITLE7=Moonlight In Vermont
TTITLE8=Somewhere Over the Rainbow
TTITLE9=These Foolish Things
TTITLE10=Angel Eyes
TTITLE11=Whatever Lola Wants
TTITLE12=Fever
TTITLE13=My Heart Belongs to Daddy
TTITLE14=Nature Boy
EXTD=YEAR: 2006
EXTT0=
EXTT1=
EXTT2=
EXTT3=
EXTT4=
EXTT5=
EXTT6=
EXTT7=
EXTT8=
EXTT9=
EXTT10=
EXTT11=
EXTT12=
EXTT13=
EXTT14=
PLAYORDER=
